<?xml version="1.0" encoding="utf-8"?>
<!-- Generator: Adobe Illustrator 22.0.1, SVG Export Plug-In . SVG Version: 6.00 Build 0)  -->
<svg version="1.2" baseProfile="tiny" id="Layer_1" xmlns="http://www.w3.org/2000/svg" xmlns:xlink="http://www.w3.org/1999/xlink"
	 x="0px" y="0px" viewBox="0 0 226.8 25.5" xml:space="preserve">
<g>
	<path fill-rule="evenodd" fill="#FFCA05" d="M226.8,23.5V23c0-0.5-0.2-1-0.6-1.4c-0.4-0.4-0.9-0.6-1.4-0.6H192
		c-0.7,0-1.3-0.3-1.8-0.7c-0.5-0.5-0.7-1.1-0.7-1.8v-1.5c0-0.5,0.2-1,0.6-1.4c0.4-0.4,0.9-0.6,1.4-0.6h33.4c1.1,0,2-0.9,2-2v-0.5
		c0-0.5-0.2-1-0.6-1.4c-0.4-0.4-0.9-0.6-1.4-0.6h-33.4c-0.5,0-1-0.2-1.4-0.6c-0.4-0.4-0.6-0.9-0.6-1.4V6.9c0-0.7,0.3-1.3,0.7-1.8
		c0.5-0.5,1.1-0.7,1.8-0.7h32.8c1.1,0,2-0.9,2-2V2c0-0.5-0.2-1-0.6-1.4c-0.4-0.4-0.9-0.6-1.4-0.6L192,0c-1.8,0-3.6,0.7-4.9,2
		c-1.3,1.3-2,3-2,4.8v11.7c0,1.8,0.7,3.6,2,4.9c1.3,1.3,3,2,4.9,2h32.8C225.9,25.5,226.8,24.6,226.8,23.5z"/>
	<path fill-rule="evenodd" fill="#231F20" d="M40.5,25.5c1.4,0,2-0.9,2-2V2.2c0-0.9-0.5-1.7-1.4-2c-0.8-0.4-1.8-0.2-2.4,0.5
		L21.7,18.3c-0.2,0.2-0.6,0.2-0.8,0L3.8,0.7C3.1,0.1,2.2-0.2,1.4,0.2C0.5,0.5,0,1.3,0,2.2l0,21.3c0,0.5,0.2,1,0.6,1.4
		c0.4,0.4,0.9,0.6,1.4,0.6h0.5c1.1,0,2-0.9,2-2V9.8c0-0.4,0.2-0.7,0.5-0.8c0.3-0.1,0.7-0.1,1,0.2l13.8,14.2c0.4,0.4,1,0.7,1.6,0.7
		c0.6,0,1.2-0.2,1.6-0.7L36.6,9.2c0.2-0.3,0.6-0.3,1-0.2c0.3,0.1,0.5,0.5,0.5,0.8v13.7c0,0.5,0.2,1,0.6,1.4c0.4,0.4,0.9,0.6,1.4,0.6
		H40.5L40.5,25.5z M176.7,20.4c0.5-0.5,0.7-1.1,0.7-1.8V6.9c0-0.7-0.3-1.3-0.7-1.8c-0.5-0.5-1.1-0.7-1.8-0.7H148
		c-0.7,0-1.2,0.2-1.7,0.7c-0.5,0.5-0.8,1.1-0.8,1.8v11.7c0,0.7,0.3,1.3,0.7,1.8c0.5,0.5,1.1,0.7,1.8,0.7h26.9
		C175.5,21.1,176.2,20.8,176.7,20.4L176.7,20.4z M181.8,18.6c0,1.8-0.7,3.6-2,4.9c-1.3,1.3-3,2-4.9,2H148c-1.8,0-3.6-0.7-4.9-2
		c-1.3-1.3-2-3-2-4.9V6.9c0-1.8,0.7-3.6,2-4.8c1.3-1.3,3-2.1,4.9-2l26.9,0c1.8,0,3.6,0.7,4.9,2c1.3,1.3,2,3,2,4.8V18.6L181.8,18.6z
		 M50.3,2c0-0.5-0.2-1-0.6-1.4C49.4,0.3,48.9,0,48.4,0l-0.5,0c-0.5,0-1,0.2-1.4,0.6C46.1,1,45.9,1.5,45.9,2v21.5
		c0,0.5,0.2,1,0.6,1.4c0.4,0.4,0.9,0.6,1.4,0.6h0.5c1.1,0,2-0.9,2-2V2L50.3,2z M91.7,24.1c0.3-0.4,0.5-0.9,0.4-1.4
		c0-0.5-0.4-1-0.7-1.3l-10.6-8.8c-0.5-0.4-0.8-1.1-0.7-1.8c0.1-0.7,0.5-1.2,1.1-1.5l9.9-4.7c0.5-0.2,0.8-0.6,1-1.1
		c0.2-0.5,0.1-1-0.1-1.5l-0.2-0.4c-0.5-1-1.6-1.4-2.6-0.9L61,14.1c-0.6,0.3-1.3,0.2-1.9-0.1c-0.6-0.4-0.9-1-0.9-1.7V2
		c0-0.5-0.2-1-0.6-1.4C57.2,0.2,56.7,0,56.2,0l-0.5,0c-0.5,0-1,0.2-1.4,0.6C54,0.9,53.8,1.4,53.8,2v21.5c0,0.5,0.2,1,0.6,1.4
		c0.4,0.4,0.9,0.6,1.4,0.6h0.5c1.1,0,2-0.9,2-2v-2c0-0.8,0.4-1.4,1.1-1.8L73,13.2c0.7-0.3,1.5-0.2,2.1,0.3l13.6,11.2
		c0.4,0.3,0.9,0.5,1.4,0.4c0.5,0,1-0.3,1.3-0.7L91.7,24.1L91.7,24.1z M133.7,18.9c-0.4-0.4-0.6-1-0.5-1.5c0.1-0.6,0.4-1.1,0.8-1.4
		c0.4-0.3,0.7-0.5,1.1-0.9c1.7-1.6,2.7-3.8,2.7-6.3c0-1.7-0.5-3.3-1.3-4.6c-0.4-0.6-0.8-1.2-1.4-1.7c-1.6-1.5-4.4-2.4-6-2.4
		c-0.6,0-25.8,0-27.3,0c-1.3,0-2.5,0.4-3.5,1.2c-1.3,1-2,2.6-1.9,4.2v18.1c0,0.5,0.2,1,0.6,1.4c0.4,0.4,0.9,0.6,1.4,0.6h0.5
		c1.1,0,2-0.9,2-2v-4.2c0-0.5,0.2-1,0.6-1.4c0.4-0.4,0.9-0.6,1.4-0.6h22.7c0.5,0,1.1,0.2,1.4,0.6l6.3,6.7c0.4,0.4,0.9,0.6,1.4,0.6
		c0.5,0,1.1-0.3,1.4-0.5c0.3-0.2,0.3-0.3,0.3-0.3c0.4-0.4,0.6-0.9,0.6-1.4c0-0.5-0.2-1-0.5-1.4C135.8,21,133.7,18.9,133.7,18.9z
		 M102.7,13c-0.5,0-1-0.2-1.4-0.6c-0.4-0.4-0.6-0.9-0.6-1.4c0,0,0-5.7,0-5.7c0-0.2,0-0.3,0.1-0.4c0.1-0.2,0.5-0.5,0.8-0.5
		c6.8,0,27.2,0,27.2,0c0.4,0,0.8,0,1.1,0.1c0.1,0,0.2,0,0.2,0.1c0.1,0,0.2,0,0.2,0.1c1.5,0.5,2.6,1.8,2.8,3.4
		c0.1,0.4,0.1,0.9-0.1,1.6c-0.4,1.7-1.8,3.2-3.5,3.3C122.8,13.2,109.5,13.1,102.7,13z"/>
</g>
</svg>
