<?xml version="1.0" encoding="utf-8"?>
<!-- Generator: Adobe Illustrator 22.0.1, SVG Export Plug-In . SVG Version: 6.00 Build 0)  -->
<svg version="1.2" baseProfile="tiny" id="Layer_1" xmlns="http://www.w3.org/2000/svg" xmlns:xlink="http://www.w3.org/1999/xlink"
	 x="0px" y="0px" width="140.5928px" height="39.3404px" viewBox="0 0 140.5928 39.3404" xml:space="preserve">
<g>
	<g>
		<path fill-rule="evenodd" fill="#FFCA05" d="M140.3584,14.5339v-0.2928c0-0.321-0.1274-0.6288-0.3544-0.8558
			c-0.227-0.2268-0.5348-0.3544-0.8558-0.3544h-20.2937c-0.409,0.0052-0.8025-0.1567-1.0892-0.4484
			c-0.2915-0.287-0.4534-0.6802-0.4485-1.0892v-0.949c0-0.321,0.1275-0.6288,0.3544-0.8558
			c0.2269-0.2268,0.5348-0.3544,0.8558-0.3544h20.6212c0.6684,0,1.2101-0.5419,1.2101-1.2102V7.8312
			c0-0.3209-0.1274-0.6286-0.3544-0.8556c-0.227-0.227-0.5348-0.3545-0.8558-0.3545h-20.6212c-0.3209,0-0.6288-0.1274-0.8558-0.3545
			c-0.2268-0.2268-0.3544-0.5347-0.3544-0.8556V4.2645c-0.006-0.4077,0.1563-0.7999,0.4485-1.0844
			c0.2851-0.2946,0.6792-0.4586,1.0892-0.4532h20.2937c0.6684,0,1.2101-0.5418,1.2101-1.2102V1.2238
			c0-0.3209-0.1274-0.6287-0.3544-0.8556c-0.227-0.227-0.5348-0.3545-0.8558-0.3545l-20.2937,0
			c-1.1332-0.0144-2.2218,0.441-3.0072,1.2579c-0.8073,0.7848-1.257,1.867-1.2435,2.9929v7.2288
			c-0.0153,1.1304,0.4342,2.2177,1.2435,3.0072c0.7896,0.8092,1.8767,1.2587,3.0072,1.2435h20.2937
			C139.8167,15.7441,140.3584,15.2023,140.3584,14.5339z"/>
		<path fill-rule="evenodd" fill="#231F20" d="M25.2862,15.7441c0.6683,0,1.2101-0.5418,1.2101-1.2101V1.3727
			c0.0249-0.5569-0.3207-1.0635-0.8483-1.2435c-0.5064-0.2422-1.1121-0.1159-1.4796,0.3084L13.6148,11.2831
			c-0.1347,0.1384-0.3565,0.1411-0.4938,0L2.5634,0.4376C2.1722,0.0358,1.5903-0.112,1.0839,0.1292
			C0.557,0.3103,0.212,0.8162,0.2355,1.3727l0,13.1612c0,0.3209,0.1275,0.6288,0.3545,0.8558
			c0.2269,0.227,0.5347,0.3544,0.8556,0.3544h0.2928c0.6685,0,1.2102-0.5418,1.2102-1.2101V6.0426
			c0-0.2189,0.1327-0.4161,0.3356-0.4983c0.2029-0.0824,0.4354-0.0335,0.588,0.1235l8.5177,8.7655
			c0.2556,0.2652,0.6101,0.4118,0.9782,0.4048c0.3662,0.0034,0.7179-0.1427,0.9737-0.4048l8.5223-8.7659
			c0.1526-0.157,0.3851-0.2059,0.5879-0.1236c0.2029,0.0824,0.3355,0.2794,0.3355,0.4983v8.4918
			c0,0.3209,0.1275,0.6288,0.3545,0.8558c0.227,0.227,0.5348,0.3544,0.8558,0.3544H25.2862L25.2862,15.7441z M109.3882,12.5782
			c0.2917-0.287,0.4537-0.6807,0.4483-1.0899V4.2541c0.0062-0.4079-0.156-0.8005-0.4483-1.0852
			c-0.2852-0.2949-0.6796-0.459-1.0899-0.4535H91.669c-0.4102-0.0052-0.7721,0.1263-1.0575,0.4211
			c-0.2923,0.2846-0.487,0.7096-0.4812,1.1176v7.2342c-0.0049,0.4091,0.1571,0.8027,0.4488,1.0899
			c0.287,0.2918,0.6807,0.454,1.0899,0.4487h16.6293C108.7074,13.0318,109.101,12.8697,109.3882,12.5782L109.3882,12.5782z
			 M112.552,11.4882c0.0152,1.1312-0.4347,2.2193-1.2445,3.0093c-0.79,0.8099-1.878,1.2598-3.0093,1.2445H91.669
			c-1.1312,0.0152-2.2192-0.4347-3.0094-1.2445c-0.8097-0.7901-1.2597-1.8782-1.2443-3.0093V4.2541
			c-0.0134-1.1268,0.4364-2.2095,1.2443-2.9951c0.786-0.8174,1.8755-1.273,3.0094-1.2587l16.6293,0
			c1.1339-0.0145,2.2234,0.4411,3.0093,1.2587c0.8078,0.7857,1.2576,1.8684,1.2445,2.9951V11.4882L112.552,11.4882z M31.3351,1.24
			c0-0.3211-0.1275-0.6292-0.3547-0.8564c-0.2271-0.2271-0.5351-0.3546-0.8562-0.3546h-0.2931
			c-0.3212,0-0.6293,0.1275-0.8564,0.3546C28.7476,0.6109,28.62,0.9189,28.62,1.24v13.2908c0,0.3213,0.1276,0.6293,0.3547,0.8564
			c0.2271,0.2272,0.5352,0.3547,0.8564,0.3547h0.2931c0.6688,0,1.211-0.5422,1.211-1.2111V1.24L31.3351,1.24z M56.9019,14.8676
			c0.2045-0.2478,0.3019-0.5666,0.2713-0.8863c-0.0308-0.3198-0.1872-0.6142-0.4351-0.8185l-6.5611-5.4098
			c-0.3191-0.2631-0.4819-0.671-0.4315-1.0817c0.0503-0.4106,0.3067-0.767,0.6798-0.9454l6.1228-2.9258
			c0.2903-0.1386,0.5134-0.3871,0.6201-0.6908c0.1069-0.3035,0.0884-0.6371-0.0511-0.9271l-0.1266-0.2629
			c-0.2894-0.6013-1.0108-0.8553-1.6131-0.5676L37.9003,8.6979c-0.3752,0.1791-0.8161,0.1532-1.1678-0.0685
			c-0.3517-0.2219-0.5651-0.6086-0.5651-1.0244V1.2113c0-0.3211-0.1276-0.6292-0.3547-0.8564
			c-0.2271-0.2271-0.5351-0.3546-0.8562-0.3546l-0.2931,0c-0.3213,0-0.6293,0.1275-0.8563,0.3546
			c-0.2271,0.2272-0.3547,0.5352-0.3547,0.8564v13.3052c0,0.3213,0.1275,0.6293,0.3547,0.8564
			c0.2271,0.2272,0.5351,0.3547,0.8563,0.3547h0.2931c0.6687,0,1.211-0.5421,1.211-1.2111v-1.2186
			c0-0.4663,0.2678-0.8913,0.6886-1.0924l8.4578-4.0444c0.4252-0.2032,0.9297-0.1415,1.2932,0.1586l8.4048,6.9359
			c0.2478,0.2044,0.5667,0.3022,0.8864,0.2715c0.3198-0.0308,0.6143-0.1872,0.8187-0.4351L56.9019,14.8676L56.9019,14.8676z
			 M84.3191,13.1858l-1.4446-1.5343c-0.2403-0.2553-0.3583-0.6024-0.3232-0.9513c0.0352-0.3489,0.2198-0.6655,0.5062-0.8678
			c0.262-0.1932,0.4379-0.3398,0.6492-0.5593c1.0359-0.979,1.6833-2.3648,1.6833-3.9027c0-1.0539-0.3048-2.036-0.8292-2.8654
			c-0.2233-0.3643-0.4997-0.711-0.8498-1.0332C82.7485,0.5602,81.4498,0,80.0195,0c-0.0202,0-0.0401,0.0013-0.0603,0.0015
			c-0.0114,0-0.0227-0.0013-0.0341-0.0012l-16.7739,0c-0.7966-0.0062-1.5706,0.2648-2.1894,0.7665
			c-0.7804,0.6319-1.2153,1.5963-1.1719,2.5997v11.1643c0,0.3213,0.1276,0.6293,0.3546,0.8564
			c0.2272,0.2272,0.5352,0.3547,0.8564,0.3547h0.293c0.6688,0,1.211-0.5422,1.211-1.2111v-2.5792
			c0-0.3212,0.1277-0.6292,0.3547-0.8563c0.2271-0.2271,0.5352-0.3546,0.8564-0.3546h14.0436c0.3355,0,0.6559,0.1391,0.8849,0.3843
			l0.4609,0.4933l3.2504,3.429l0.0965,0.1015c0.2214,0.2328,0.5261,0.3681,0.8471,0.3762c0.321,0.0082,0.6322-0.1117,0.865-0.3331
			l0.2057-0.1955c0.233-0.2217,0.3683-0.5269,0.3762-0.8486c0.0076-0.3215-0.1128-0.6328-0.3349-0.8655L84.3191,13.1858z
			 M63.7161,8.0253c-0.3212,0-0.6293-0.1277-0.8564-0.3547c-0.2271-0.2271-0.3547-0.5351-0.3547-0.8563v-3.461
			c0-0.0161,0-0.0639,0-0.0721c0-0.0973,0.0268-0.1875,0.0701-0.2675c0.0957-0.1768,0.2806-0.2983,0.4957-0.2983h0.0805h4.3859
			h7.8149h4.4679h0.0432c0.0409,0,0.0817,0.0022,0.1222,0.0062l0.1014,0.0101c0.1156,0.0112,0.2289,0.0237,0.3444,0.0373
			l0.1405,0.0236c0.0248,0.0062,0.0498,0.0122,0.0743,0.0191c0.0489,0.0138,0.0971,0.029,0.1448,0.0454
			c0.9171,0.3162,1.6049,1.1189,1.7574,2.1007c0,0,0.069,0.5337-0.0378,1.0178c-0.2456,1.0477-1.1096,1.8545-2.187,2.0168
			l-0.3981,0.033h0h-4.5732H63.7161z"/>
	</g>
	<g>
		<path fill="#58595B" d="M2.4653,28.4654H0.0239c0,0-0.0239-0.1768-0.0239-0.3652c0-0.083,0.0117-0.3066,0.0239-0.4131h5.8267
			c0.0234,0.1533,0.0234,0.3066,0.0234,0.4131c0,0.1533-0.0117,0.2832-0.0234,0.3652H3.3379v8.0918
			c-0.1533,0.0234-0.3066,0.0234-0.436,0.0234c-0.1772,0-0.3306-0.0117-0.4365-0.0234V28.4654z"/>
		<path fill="#58595B" d="M6.9854,29.0913c0-0.248,0.0117-0.4248,0.0117-0.4248c0.165-0.0117,0.3184-0.0117,0.46-0.0117
			c0.2715,0,0.4722,0.0117,0.4722,0.0117c0.0117,0.1299,0.0117,0.2715,0.0117,0.4004c0,0.248-0.0117,0.4365-0.0117,0.4365
			c-0.1533,0.0117-0.3071,0.0117-0.4482,0.0117c-0.2715,0-0.4839-0.0117-0.4839-0.0117
			C6.9854,29.3619,6.9854,29.2202,6.9854,29.0913z M7.9053,36.5572c0,0-0.2832,0.0117-0.46,0.0117c-0.106,0-0.2476,0-0.3774-0.0117
			v-5.8623c0.1299-0.0117,0.2715-0.0117,0.3774-0.0117c0.1768,0,0.354,0,0.46,0.0117V36.5572z"/>
		<path fill="#58595B" d="M13.7329,36.5572c-0.1299,0.0117-0.2832,0.0234-0.3892,0.0234c-0.165,0-0.3184-0.0117-0.4126-0.0234
			v-5.2373l-2.3354,0.0596v5.1777c-0.1655,0.0234-0.2598,0.0234-0.3774,0.0234c-0.1655,0-0.3306-0.0117-0.4248-0.0234v-5.8027
			c0,0,3.1138-0.1299,4.9302-0.1299c1.8872,0,2.2886,0.6836,2.2886,2.5352v3.3975c-0.1416,0.0117-0.2832,0.0234-0.4014,0.0234
			c-0.1533,0-0.3066-0.0117-0.4009-0.0234v-3.5146c0-1.1914-0.2241-1.7695-1.4863-1.7578l-0.9907,0.0117V36.5572z"/>
		<path fill="#58595B" d="M19.3159,33.691c0,1.4268,0.6958,2.2412,1.9346,2.2412c0.8491,0,1.4272-0.2129,1.6631-0.3418
			c0.2124,0.3066,0.1885,0.6953,0.1885,0.6953s-0.5659,0.3301-1.8516,0.3301c-1.9229,0-2.7485-1.1201-2.7485-3.0547
			c0-2.0518,0.9438-2.9727,2.5005-2.9727c1.4629,0,2.2646,0.7314,2.312,2.5479l0.0117,0.5547H19.3159z M19.3276,33.0425h3.1494
			c0.0117-1.1328-0.354-1.7695-1.4746-1.7695C19.894,31.273,19.3276,31.9331,19.3276,33.0425z"/>
		<path fill="#58595B" d="M24.6494,33.2896c0,0-0.0234-0.2832-0.0234-0.4365c0-0.0938,0.0117-0.2588,0.0234-0.377h3.2085
			c0.0234,0.1533,0.0234,0.2598,0.0234,0.3896c0,0.165-0.0117,0.3184-0.0234,0.4238H24.6494z"/>
		<path fill="#58595B" d="M33.4741,31.0611c0,0-0.189,0.3535-0.5425,0.5068c0,0-0.4956-0.3066-1.1323-0.3066
			c-0.7788,0-1.144,0.3418-1.144,0.8848c0,0.8369,0.5542,1.002,1.5332,1.0967c0.8257,0.083,1.5806,0.5898,1.5806,1.6045
			c0,1.3203-0.7197,1.793-2.2173,1.793c-1.1089,0-1.7104-0.5664-1.7104-0.5664s0.1768-0.3418,0.5308-0.4951
			c0,0,0.5542,0.4121,1.1797,0.4121c1.1084,0,1.4624-0.377,1.4624-1.0137c0-0.8848-0.6724-1.0498-1.5923-1.1797
			c-0.8965-0.1182-1.5215-0.46-1.5215-1.5215c0-1.2979,0.6484-1.6748,1.8989-1.6748
			C32.8726,30.6011,33.4741,31.0611,33.4741,31.0611z"/>
		<path fill="#58595B" d="M35.1982,35.0122c0-1.0732,0.625-1.7461,2.0522-1.7695l1.3799-0.0234v-0.873
			c0-0.7432-0.4009-1.0615-1.1675-1.0615c-0.4839,0-1.1323,0.083-1.439,0.3779c0,0-0.3423-0.2246-0.5308-0.5313
			c0.4243-0.3535,1.2856-0.5547,1.9697-0.5547c1.3208,0,1.9697,0.5313,1.9697,1.8291v4.0928c0,0-0.979,0.1533-2.4297,0.1533
			C35.6934,36.6519,35.1982,36.0738,35.1982,35.0122z M38.6304,35.8853v-2.0059l-1.3799,0.0234
			c-1.1206,0.0244-1.2739,0.5195-1.2739,1.1094c0,0.4482,0.165,0.9668,1.0854,0.9668
			C37.9463,35.979,38.6304,35.8853,38.6304,35.8853z"/>
		<path fill="#58595B" d="M45.0024,30.6714c0.625,0.0234,0.8257,0.1768,0.8257,0.1768l-2.1113,5.709
			c0,0-0.2949,0.0234-0.4956,0.0234c-0.1299,0-0.2832,0-0.4482-0.0234l-2.0405-5.6611c0.3892-0.2129,0.7905-0.248,0.7905-0.248
			l0.8965,2.5c0.7783,2.1592,0.8252,2.6074,0.8252,2.6074h0.0591c0,0,0.0474-0.46,0.8022-2.5713L45.0024,30.6714z"/>
		<path fill="#58595B" d="M46.9272,29.0913c0-0.248,0.0117-0.4248,0.0117-0.4248c0.165-0.0117,0.3184-0.0117,0.46-0.0117
			c0.2715,0,0.4722,0.0117,0.4722,0.0117c0.0117,0.1299,0.0117,0.2715,0.0117,0.4004c0,0.248-0.0117,0.4365-0.0117,0.4365
			c-0.1533,0.0117-0.3066,0.0117-0.4482,0.0117c-0.2715,0-0.4839-0.0117-0.4839-0.0117
			C46.9272,29.3619,46.9272,29.2202,46.9272,29.0913z M47.8472,36.5572c0,0-0.2827,0.0117-0.46,0.0117
			c-0.106,0-0.2476,0-0.3774-0.0117v-5.8623c0.1299-0.0117,0.2715-0.0117,0.3774-0.0117c0.1772,0,0.354,0,0.46,0.0117V36.5572z"/>
		<path fill="#58595B" d="M50.5376,36.5572c-0.1533,0.0234-0.2598,0.0234-0.3774,0.0234c-0.1655,0-0.3306-0.0117-0.4248-0.0234
			v-5.8027c0,0,1.1558-0.1299,2.0879-0.1299c1.604,0,2.1699,0.7314,2.1699,2.5352v3.3975c0,0-0.2358,0.0234-0.436,0.0234
			c-0.0947,0-0.248-0.0117-0.3657-0.0234v-3.5146c0-1.1328-0.248-1.7344-1.3682-1.7344c-0.5664,0-1.2856,0.0713-1.2856,0.0713
			V36.5572z"/>
		<path fill="#58595B" d="M57.9824,36.5806c-1.6748,0-2.5005-0.9316-2.5005-3.1016c0-1.6992,0.9556-2.8545,2.6187-2.8545
			c0.9199,0,1.9932,0.1299,1.9932,0.1299v5.9561c0,1.9111-0.8843,2.6299-2.4297,2.6299c-1.144,0-1.6748-0.4238-1.8398-0.5889
			c0,0,0.2358-0.3779,0.519-0.5898c0,0,0.4126,0.5186,1.3208,0.5186c1.0615,0,1.6279-0.543,1.6279-2.2061
			C59.292,36.4742,58.5488,36.5806,57.9824,36.5806z M59.292,35.8257v-4.4463c0,0-0.5073-0.0596-1.1914-0.0596
			c-1.2383,0-1.769,0.9443-1.769,2.1592c0,1.5918,0.4009,2.418,1.6509,2.418C58.6313,35.897,59.292,35.8257,59.292,35.8257z"/>
		<path fill="#58595B" d="M65.2051,33.691c0,1.4268,0.6958,2.2412,1.9346,2.2412c0.8491,0,1.4272-0.2129,1.6631-0.3418
			c0.2124,0.3066,0.1885,0.6953,0.1885,0.6953s-0.5659,0.3301-1.8516,0.3301c-1.9229,0-2.7485-1.1201-2.7485-3.0547
			c0-2.0518,0.9438-2.9727,2.5005-2.9727c1.4629,0,2.2646,0.7314,2.312,2.5479l0.0117,0.5547H65.2051z M65.2168,33.0425h3.1494
			c0.0117-1.1328-0.354-1.7695-1.4746-1.7695C65.7832,31.273,65.2168,31.9331,65.2168,33.0425z"/>
		<path fill="#58595B" d="M74.6196,36.5572c-0.1299,0.0117-0.2832,0.0234-0.3892,0.0234c-0.165,0-0.3184-0.0117-0.4126-0.0234
			v-5.2373l-2.3354,0.0596v5.1777c-0.1655,0.0234-0.2598,0.0234-0.3774,0.0234c-0.1655,0-0.3306-0.0117-0.4248-0.0234v-5.8027
			c0,0,3.1138-0.1299,4.9302-0.1299c1.8872,0,2.2886,0.6836,2.2886,2.5352v3.3975c-0.1416,0.0117-0.2832,0.0234-0.4014,0.0234
			c-0.1533,0-0.3066-0.0117-0.4009-0.0234v-3.5146c0-1.1914-0.2241-1.7695-1.4863-1.7578l-0.9907,0.0117V36.5572z"/>
		<path fill="#58595B" d="M84.249,33.5259c0,1.8164-0.8379,3.1016-2.7607,3.1016c-1.0498,0-1.7456-0.1055-1.7456-0.1055v-8.835
			c0.1182-0.0117,0.2715-0.0234,0.3657-0.0234c0.165,0,0.3418,0.0117,0.4365,0.0234v3.043c0,0,0.625-0.0938,1.1904-0.0938
			C83.4111,30.6363,84.249,31.356,84.249,33.5259z M83.3994,33.5259c0-1.6279-0.4014-2.2061-1.6641-2.2061
			c-0.6367,0-1.1904,0.1064-1.1904,0.1064v4.4346c0,0,0.3066,0.0713,0.9434,0.0713C83.0215,35.9322,83.3994,34.8472,83.3994,33.5259
			z"/>
		<path fill="#58595B" d="M86.2441,33.691c0,1.4268,0.6963,2.2412,1.9346,2.2412c0.8496,0,1.4277-0.2129,1.6631-0.3418
			c0.2119,0.3066,0.1885,0.6953,0.1885,0.6953s-0.5664,0.3301-1.8516,0.3301c-1.9229,0-2.748-1.1201-2.748-3.0547
			c0-2.0518,0.9434-2.9727,2.5-2.9727c1.4629,0,2.2646,0.7314,2.3125,2.5479l0.0117,0.5547H86.2441z M86.2559,33.0425h3.1494
			c0.0117-1.1328-0.3535-1.7695-1.4746-1.7695C86.8223,31.273,86.2559,31.9331,86.2559,33.0425z"/>
		<path fill="#58595B" d="M91.3652,33.5142c0-1.6982,0.9561-2.9014,2.6182-2.9014c0.5781,0,1.1914,0.082,1.1914,0.082V27.687
			c0.166-0.0234,0.2598-0.0234,0.3896-0.0234c0.1533,0,0.3184,0.0117,0.4131,0.0234v8.835c0,0-1.1328,0.1055-2.1113,0.1055
			C92.1904,36.6275,91.3652,35.6841,91.3652,33.5142z M95.1748,35.8853v-4.4824c0,0-0.5068-0.1064-1.1914-0.1064
			c-1.2383,0-1.7686,1.0029-1.7686,2.2178c0,1.5918,0.4014,2.4297,1.6514,2.4297C94.5146,35.9439,95.1748,35.8853,95.1748,35.8853z"
			/>
		<path fill="#58595B" d="M97.5127,33.5142c0-1.6982,0.9561-2.9014,2.6191-2.9014c0.5781,0,1.1914,0.082,1.1914,0.082V27.687
			c0.165-0.0234,0.2598-0.0234,0.3887-0.0234c0.1543,0,0.3184,0.0117,0.4131,0.0234v8.835c0,0-1.1318,0.1055-2.1113,0.1055
			C98.3389,36.6275,97.5127,35.6841,97.5127,33.5142z M101.3232,35.8853v-4.4824c0,0-0.5078-0.1064-1.1914-0.1064
			c-1.2383,0-1.7695,1.0029-1.7695,2.2178c0,1.5918,0.4014,2.4297,1.6514,2.4297
			C100.6631,35.9439,101.3232,35.8853,101.3232,35.8853z"/>
		<path fill="#58595B" d="M104.4756,33.691c0,1.4268,0.6953,2.2412,1.9336,2.2412c0.8496,0,1.4277-0.2129,1.6641-0.3418
			c0.2119,0.3066,0.1875,0.6953,0.1875,0.6953s-0.5654,0.3301-1.8516,0.3301c-1.9219,0-2.748-1.1201-2.748-3.0547
			c0-2.0518,0.9434-2.9727,2.5-2.9727c1.4629,0,2.2656,0.7314,2.3125,2.5479l0.0117,0.5547H104.4756z M104.4873,33.0425h3.1484
			c0.0117-1.1328-0.3535-1.7695-1.4746-1.7695C105.0537,31.273,104.4873,31.9331,104.4873,33.0425z"/>
		<path fill="#58595B" d="M109.5967,33.5142c0-1.6982,0.9551-2.9014,2.6182-2.9014c0.5781,0,1.1914,0.082,1.1914,0.082V27.687
			c0.165-0.0234,0.2588-0.0234,0.3896-0.0234c0.1523,0,0.3184,0.0117,0.4121,0.0234v8.835c0,0-1.1328,0.1055-2.1113,0.1055
			C110.4219,36.6275,109.5967,35.6841,109.5967,33.5142z M113.4063,35.8853v-4.4824c0,0-0.5068-0.1064-1.1914-0.1064
			c-1.2383,0-1.7686,1.0029-1.7686,2.2178c0,1.5918,0.4004,2.4297,1.6504,2.4297
			C112.7451,35.9439,113.4063,35.8853,113.4063,35.8853z"/>
		<path fill="#58595B" d="M118.8594,29.1499c0.2949-0.0586,0.5303-0.1182,0.8018-0.1768v1.7217h1.6641
			c0,0,0.0234,0.1885,0.0234,0.3662c0,0.0938,0,0.1885-0.0234,0.3301h-1.6641v5.166c0,0-0.2832,0.0234-0.4238,0.0234
			c-0.083,0-0.2715-0.0117-0.3779-0.0234V29.1499z"/>
		<path fill="#58595B" d="M122.1631,33.4908c0-1.8047,0.5078-2.9141,2.3477-2.9141s2.3477,1.1094,2.3477,2.9141
			c0,2.0635-0.7432,3.1494-2.3477,3.1494C122.9072,36.6402,122.1631,35.5542,122.1631,33.4908z M126.0908,33.4908
			c0-1.4746-0.3887-2.2412-1.5801-2.2412s-1.5801,0.7666-1.5801,2.2412c0,1.4619,0.3887,2.4883,1.5801,2.4883
			S126.0908,34.9527,126.0908,33.4908z"/>
		<path fill="#58595B" d="M127.9932,33.4908c0-1.8047,0.5068-2.9141,2.3467-2.9141c1.8408,0,2.3477,1.1094,2.3477,2.9141
			c0,2.0635-0.7432,3.1494-2.3477,3.1494S127.9932,35.5542,127.9932,33.4908z M131.9209,33.4908
			c0-1.4746-0.3896-2.2412-1.5811-2.2412c-1.1904,0-1.5811,0.7666-1.5811,2.2412c0,1.4619,0.3906,2.4883,1.5811,2.4883
			C131.5313,35.979,131.9209,34.9527,131.9209,33.4908z"/>
		<path fill="#58595B" d="M134.9893,36.5572c-0.1289,0.0117-0.2832,0.0234-0.3887,0.0234c-0.1533,0-0.3301-0.0117-0.4248-0.0234
			v-8.7168l0.8135-0.1768V36.5572z"/>
		<path fill="#58595B" d="M140.2979,31.0611c0,0-0.1885,0.3535-0.542,0.5068c0,0-0.4951-0.3066-1.1318-0.3066
			c-0.7793,0-1.1445,0.3418-1.1445,0.8848c0,0.8369,0.5547,1.002,1.5332,1.0967c0.8262,0.083,1.5801,0.5898,1.5801,1.6045
			c0,1.3203-0.7188,1.793-2.2168,1.793c-1.1094,0-1.7109-0.5664-1.7109-0.5664s0.1777-0.3418,0.5313-0.4951
			c0,0,0.5547,0.4121,1.1797,0.4121c1.1084,0,1.4629-0.377,1.4629-1.0137c0-0.8848-0.6729-1.0498-1.5928-1.1797
			c-0.8965-0.1182-1.5215-0.46-1.5215-1.5215c0-1.2979,0.6484-1.6748,1.8994-1.6748
			C139.6963,30.6011,140.2979,31.0611,140.2979,31.0611z"/>
	</g>
</g>
</svg>
