<?xml version="1.0" encoding="utf-8"?>
<!-- Generator: Adobe Illustrator 22.0.0, SVG Export Plug-In . SVG Version: 6.00 Build 0)  -->
<!DOCTYPE svg PUBLIC "-//W3C//DTD SVG 1.1//EN" "http://www.w3.org/Graphics/SVG/1.1/DTD/svg11.dtd">
<svg version="1.1" id="Layer_1" xmlns="http://www.w3.org/2000/svg" xmlns:xlink="http://www.w3.org/1999/xlink" x="0px" y="0px"
	 width="70.9px" height="17px" viewBox="0 0 70.9 17" enable-background="new 0 0 70.9 17" xml:space="preserve">
<g>
	<rect x="52.6" y="14.1" class="st0" width="8.6" height="1.7"/>
	<path class="st0" d="M59.9,12.3v-0.6c0,0.1,0,0.2,0,0.3C59.9,12.1,59.9,12.2,59.9,12.3 M59.9,5.4V5.1h0.3V4.5h-0.3V4.2h0.4
		c0.1,0,0.2,0.1,0.2,0.2v0.9c0,0.1-0.1,0.2-0.2,0.2H59.9z M59.9,3.9V2.7H60c0.1,0,0.3,0,0.4,0.1c0.1,0.1,0.2,0.2,0.2,0.3
		c0,0.1-0.1,0.3-0.2,0.4l-0.1,0.1v0.1l-0.2,0.2H59.9z M59.9,2.7v1.1h0l0,0.3h0.1v0.3h-0.3v0.6h0.3v0.3h-0.2l-0.5,5.5
		c0.2,0.1,0.3,0.2,0.4,0.3c0.1,0.1,0.3,0.3,0.3,0.5v0.6c-0.1,0.2-0.2,0.4-0.3,0.5c-0.2,0.2-0.5,0.3-0.8,0.3v-0.7
		c0.1,0,0.3-0.1,0.4-0.1c0.1-0.1,0.2-0.2,0.2-0.4c0-0.1-0.1-0.3-0.2-0.4c-0.1-0.1-0.2-0.2-0.4-0.2v-0.6h0.1l0.5-5.4l-0.1-0.1V4.4
		l0.2-0.2h0l0-0.3h-0.8V3.3h0.7l0-0.1l0-0.1c-0.1-0.1-0.3-0.2-0.7-0.4V2.4c0.4,0.1,0.7,0.3,0.8,0.4C59.7,2.8,59.8,2.8,59.9,2.7
		 M58.8,12.4c0.2,0,0.4-0.2,0.4-0.4c0-0.2-0.2-0.4-0.4-0.4V12.4z M58,5.6h0.3c0.1,0,0.2,0.1,0.2,0.2v0.4l-0.2,0.2H58V6.1h0.1V6H58
		V5.6z M58.8,2.4v0.3c-0.2-0.1-0.4-0.1-0.7-0.2V2.3C58.3,2.3,58.6,2.4,58.8,2.4 M58,3.3h0.7v0.6H58V3.3z M58.8,10.8v0.6
		c-0.1,0-0.3,0.1-0.4,0.2v0c-0.1,0.1-0.2,0.2-0.2,0.4c0,0.1,0.1,0.3,0.2,0.4c0.1,0.1,0.2,0.1,0.4,0.1v0.7c-0.3,0-0.6-0.1-0.7-0.3
		v-1.8C58.2,10.9,58.5,10.8,58.8,10.8 M58.8,11.6c-0.2,0-0.4,0.2-0.4,0.4c0,0.2,0.2,0.4,0.4,0.4V11.6z M56.6,5.6H58V6H58l0,0.1H58
		v0.3h-1.4V6.1h0.1l0-0.1h-0.1V5.6z M58,2.3v0.3l-0.1,0v0.1c0,0.1-0.1,0.2-0.2,0.2h-1.2V2.5h1.1V2.3h-1.1V2h1.2L58,2.1L58,2.3
		L58,2.3z M56.6,3.3H58v0.6h-1.4V3.3z M58,11.1v1.8L58,12.8c-0.1-0.1-0.2-0.2-0.2-0.4h-1.1v-0.3h1l0-0.1
		C57.6,11.7,57.7,11.4,58,11.1L58,11.1z M56.3,5.6h0.3V6h-0.1v0.1h0.1v0.3h-0.3l-0.2-0.2V5.8C56.1,5.7,56.2,5.6,56.3,5.6 M56.6,2
		v0.3h-0.1v0.2h0.1v0.3h-0.3c-0.1,0-0.2-0.1-0.2-0.2V2.6c-0.3,0-0.6,0.1-0.8,0.1v0.2l0,0.1l0,0.1v0.2h1.3v0.6h-1.7V3.3h0V3.3h0V2.2
		h0.2l0.2,0.2c0.2,0,0.5-0.1,0.8-0.1V2.1L56.3,2H56.6z M56.6,12.1v0.3h-1.1V13c0,0.1-0.1,0.2-0.2,0.2h-0.3v-1.1H56.6z M54.9,2.2v1.1
		h0v0.1h0v0.6h-0.6V3.3h0.2V3.1l0-0.1l-0.1-0.1L54.3,3V2.7l0.2-0.1V2.3c0-0.1,0.1-0.2,0.2-0.2H54.9z M54.9,12.1v1.1h0L54.7,13v-0.6
		l-0.1-0.1l-0.3-3V5.9L54.9,12.1L54.9,12.1z M54.3,2.7V3c-0.2,0.1-0.2,0.2-0.3,0.3l0,0h0.3v0.6h-0.2l0.2,2v3.4l-0.5-5.4h-0.3
		l-0.2-0.2V3.5l0.2-0.2h0.2v0l0-0.1C53.8,3.2,53.9,2.9,54.3,2.7"/>
	<polygon class="st0" points="50.9,1.4 50.9,1.2 51.1,1.2 56.8,7.4 62.5,1.2 62.8,1.2 62.8,1.4 57.1,7.6 62.8,13.8 62.8,14 62.5,14 
		56.8,7.9 51.1,14 50.9,14 50.9,13.8 56.6,7.6 	"/>
	<path class="st0" d="M21.6,7.2c0,0-0.8,1.4-1.7,3c-0.3,0.5,0.1,1.3,0.8,1.4c2.2,0.1,4.3,0,4.3,0l0-0.8c0,0-3.2,0-4,0
		c-0.2,0-0.5-0.1-0.3-0.5c0.4-0.7,1.6-2.7,1.6-2.7l0.5,0.2l-0.2-1.8l-1.5,0.8L21.6,7.2"/>
	<path class="st0" d="M28.3,4.6c0,0-0.8-1.4-1.8-3c-0.3-0.5-1.2-0.6-1.6,0c-1.2,1.9-2.2,3.7-2.2,3.7l0.7,0.4c0,0,1.6-2.8,2-3.4
		c0.1-0.1,0.3-0.4,0.5,0c0.4,0.7,1.6,2.8,1.6,2.8l-0.5,0.3l1.6,0.7l0.1-1.7L28.3,4.6"/>
	<path class="st0" d="M27.2,11.7c0,0,1.6,0,3.5-0.1c0.5,0,1.1-0.8,0.8-1.4c-1.1-2-2.2-3.7-2.2-3.7l-0.7,0.4c0,0,1.6,2.7,2,3.4
		c0.1,0.1,0.2,0.5-0.2,0.5c-0.8,0-3.2,0-3.2,0l-0.1-0.6l-1.4,1.1l1.5,0.9L27.2,11.7"/>
	<path class="st0" d="M25.5,9.2v0.3h-1.9c0-0.1,0-0.2,0-0.2c0-0.1,0.1-0.3,0.2-0.4c0.1-0.1,0.3-0.3,0.5-0.4c0.3-0.3,0.5-0.5,0.6-0.6
		c0.1-0.2,0.2-0.3,0.2-0.4c0-0.1-0.1-0.3-0.2-0.4c-0.1-0.1-0.2-0.1-0.4-0.1c-0.2,0-0.3,0.1-0.4,0.2C24,7.2,24,7.3,24,7.5l-0.4,0
		c0-0.3,0.1-0.5,0.3-0.6c0.2-0.1,0.4-0.2,0.7-0.2c0.3,0,0.5,0.1,0.7,0.2c0.2,0.2,0.2,0.3,0.2,0.6c0,0.1,0,0.2-0.1,0.3
		c0,0.1-0.1,0.2-0.2,0.4c-0.1,0.1-0.3,0.3-0.5,0.5c-0.2,0.2-0.4,0.3-0.4,0.4l-0.2,0.2H25.5"/>
	<path class="st0" d="M25.9,8.1c0-0.3,0-0.6,0.1-0.8c0.1-0.2,0.2-0.4,0.3-0.5c0.1-0.1,0.3-0.2,0.5-0.2c0.2,0,0.3,0,0.4,0.1
		c0.1,0.1,0.2,0.2,0.3,0.3c0.1,0.1,0.1,0.3,0.2,0.4c0,0.2,0.1,0.4,0.1,0.7c0,0.3,0,0.6-0.1,0.8c-0.1,0.2-0.2,0.4-0.3,0.5
		c-0.1,0.1-0.3,0.2-0.5,0.2c-0.3,0-0.5-0.1-0.7-0.3C26,9,25.9,8.7,25.9,8.1 M26.2,8.1c0,0.5,0.1,0.8,0.2,1c0.1,0.2,0.2,0.2,0.4,0.2
		c0.2,0,0.3-0.1,0.4-0.2c0.1-0.2,0.2-0.5,0.2-0.9c0-0.5-0.1-0.8-0.2-1C27.1,7,27,6.9,26.8,6.9c-0.2,0-0.3,0.1-0.4,0.2
		C26.3,7.3,26.2,7.6,26.2,8.1"/>
	<path class="st0" d="M22.8,15.8v-2.4h0.9c0.2,0,0.3,0,0.4,0c0.1,0,0.2,0.1,0.3,0.1c0.1,0.1,0.1,0.1,0.2,0.2c0,0.1,0.1,0.2,0.1,0.3
		c0,0.2-0.1,0.4-0.2,0.5c-0.1,0.1-0.4,0.2-0.7,0.2h-0.6v1H22.8 M23.1,14.6h0.6c0.2,0,0.3,0,0.4-0.1c0.1-0.1,0.1-0.2,0.1-0.3
		c0-0.1,0-0.2-0.1-0.3c0-0.1-0.1-0.1-0.2-0.1c-0.1,0-0.1,0-0.3,0h-0.6V14.6z"/>
	<path class="st0" d="M24.5,15.8l0.9-2.4h0.3l1,2.4h-0.4l-0.3-0.7h-1l-0.3,0.7H24.5 M25.2,14.8H26l-0.2-0.7
		c-0.1-0.2-0.1-0.4-0.2-0.5c0,0.2-0.1,0.3-0.1,0.5L25.2,14.8z"/>
	<path class="st0" d="M27,15.8v-2.4h0.9c0.2,0,0.3,0,0.4,0c0.1,0,0.2,0.1,0.3,0.1c0.1,0.1,0.1,0.1,0.2,0.2c0,0.1,0.1,0.2,0.1,0.3
		c0,0.2-0.1,0.4-0.2,0.5c-0.1,0.1-0.4,0.2-0.7,0.2h-0.6v1H27 M27.3,14.6h0.6c0.2,0,0.3,0,0.4-0.1c0.1-0.1,0.1-0.2,0.1-0.3
		c0-0.1,0-0.2-0.1-0.3l-0.2-0.1c-0.1,0-0.2,0-0.3,0h-0.6V14.6z"/>
	<path class="st0" d="M38.8,9.1l0.6,0.4c0.1,0,0.2,0,0.2-0.1c0-0.1,0-0.1-0.1-0.2l-1.4-2.6L35,6.6c-0.1,0-0.2,0.1-0.2,0.2l0.1,0.1
		l0.6,0.4l-0.7,1.1c-0.2,0.3-0.3,0.6-0.3,0.8c0,0.2,0.1,0.4,0.2,0.6l2.1,3.7c0-0.2-0.1-0.5-0.1-0.7c0-0.4,0.1-0.7,0.4-1.1L38.8,9.1"
		/>
	<path class="st0" d="M39.6,7l1.8-2.7C40.7,2.8,40,2,39.3,2c-0.4,0-0.7,0.1-0.9,0.4l-1.7,2.6L39.6,7"/>
	<path class="st0" d="M38.2,14.3h3.4v-3.5h-3.3c-0.4,0.6-0.6,1-0.8,1.2c-0.2,0.3-0.2,0.7-0.2,1C37.3,13.9,37.6,14.3,38.2,14.3"/>
	<path class="st0" d="M45.1,6.3l1.5-2.5c0.1-0.1,0.1-0.2,0.1-0.3c0-0.1,0-0.2-0.1-0.2c0,0,0,0-0.2,0.1l-0.7,0.3l-0.6-1.2
		c-0.3-0.6-0.8-0.8-1.7-0.8h-3.9c0.5,0.1,0.8,0.3,1,0.4c0.4,0.3,0.8,0.9,1.2,1.8l0.8,1.6l-0.6,0.3l-0.1,0.2c0,0.1,0.1,0.1,0.2,0.2
		L45.1,6.3"/>
	<path class="st0" d="M46.6,13.8l2.2-4c-0.3,0.4-0.7,0.6-1.1,0.7c-0.3,0.1-0.7,0.2-1.3,0.2H44v-0.5c0-0.2,0-0.3-0.1-0.3L43.7,10
		l-1.5,2.7l1.6,2.5c0.1,0.2,0.2,0.3,0.3,0.2l0.1-0.1v-0.8h1.4C46.1,14.4,46.4,14.2,46.6,13.8"/>
	<path class="st0" d="M45.7,10.2h1.5c0.4,0,0.7-0.2,1.1-0.5c0.4-0.3,0.6-0.7,0.6-1c0-0.2-0.1-0.3-0.2-0.5l-1.7-2.6l-3,1.7L45.7,10.2
		"/>
	<path class="st0" d="M2.4,5.4V1.3h2.1c0.4,0,0.7,0,0.9,0.1C5.7,1.4,5.8,1.6,6,1.7c0.1,0.2,0.2,0.4,0.2,0.7c0,0.2,0,0.4-0.1,0.6
		C5.9,3.2,5.8,3.3,5.6,3.4C5.5,3.5,5.4,3.5,5.2,3.6c0.2,0.1,0.3,0.1,0.3,0.2c0.1,0.1,0.2,0.2,0.2,0.2l0.2,0.3l0.6,1.2H5.1L4.4,4.1
		C4.3,3.9,4.2,3.9,4.1,3.8C4,3.7,3.8,3.7,3.8,3.7H3.7v1.7H2.4z M3.7,2.9h0.5c0.1,0,0.2,0,0.3-0.1c0,0,0.1-0.1,0.2-0.1
		c0.1-0.1,0.1-0.2,0.1-0.2c0-0.1,0-0.2-0.1-0.3C4.7,2.1,4.5,2.1,4.3,2.1H3.7V2.9z"/>
	<path class="st0" d="M6.5,3.9c0-0.5,0.2-0.8,0.5-1.1c0.3-0.3,0.7-0.4,1.3-0.4c0.6,0,1.1,0.2,1.4,0.5c0.2,0.3,0.4,0.6,0.4,1
		C10,4.3,9.8,4.7,9.5,5C9.2,5.3,8.8,5.4,8.3,5.4c-0.5,0-0.9-0.1-1.2-0.4C6.7,4.8,6.5,4.4,6.5,3.9 M7.7,3.9c0,0.3,0.1,0.5,0.2,0.6
		C8,4.6,8.1,4.7,8.3,4.7s0.3-0.1,0.4-0.2c0.1-0.1,0.2-0.3,0.2-0.6c0-0.3-0.1-0.5-0.2-0.6C8.6,3.2,8.4,3.1,8.3,3.1
		C8.1,3.1,8,3.2,7.9,3.3C7.7,3.4,7.7,3.6,7.7,3.9"/>
	<polygon class="st0" points="10.6,1.3 11.9,1.3 11.9,2.7 13.3,2.7 13.3,1.3 14.6,1.3 14.6,5.4 13.3,5.4 13.3,3.7 11.9,3.7 
		11.9,5.4 10.6,5.4 	"/>
	<path class="st0" d="M3.6,7.6c-0.1,0-0.3,0.1-0.5,0.1C2.7,7.7,2.4,7.4,2.4,7c0-0.3,0.1-0.6,0.4-0.8C3,6,3.2,5.9,3.5,5.9
		c0.2,0,0.3,0,0.4,0.1L3.8,6.2c-0.1,0-0.2-0.1-0.4-0.1c-0.2,0-0.4,0.1-0.5,0.2C2.8,6.5,2.7,6.7,2.7,7c0,0.3,0.1,0.6,0.5,0.6
		c0.1,0,0.3,0,0.4-0.1L3.6,7.6z"/>
	<path class="st0" d="M4.3,7.7C4,7.7,3.8,7.5,3.8,7.2c0-0.4,0.3-0.8,0.7-0.8C4.9,6.4,5,6.7,5,6.9C5,7.3,4.7,7.7,4.3,7.7 M4.3,7.6
		c0.3,0,0.5-0.3,0.5-0.6c0-0.1-0.1-0.4-0.3-0.4C4.2,6.6,4,6.9,4,7.2C4,7.4,4.2,7.6,4.3,7.6L4.3,7.6z"/>
	<path class="st0" d="M5.2,7.7l0.2-0.9c0-0.1,0-0.3,0.1-0.4h0.2l0,0.2h0C5.7,6.5,5.8,6.4,6,6.4c0.2,0,0.3,0.1,0.3,0.3
		c0.1-0.2,0.3-0.3,0.5-0.3c0.1,0,0.3,0.1,0.3,0.3l0,0.2L6.9,7.7H6.7L6.9,7l0-0.2c0-0.1-0.1-0.2-0.2-0.2c-0.2,0-0.3,0.2-0.4,0.5
		L6.2,7.7H5.9L6.1,7l0-0.2c0-0.1,0-0.2-0.2-0.2c-0.2,0-0.4,0.2-0.4,0.5L5.4,7.7H5.2z"/>
	<path class="st0" d="M7.2,8.2l0.3-1.3c0-0.2,0.1-0.3,0.1-0.4h0.2l0,0.2h0C7.8,6.5,8,6.4,8.1,6.4c0.3,0,0.4,0.2,0.4,0.5
		c0,0.4-0.3,0.9-0.7,0.9c-0.1,0-0.2,0-0.3-0.1h0L7.4,8.2H7.2z M7.5,7.5c0.1,0,0.1,0.1,0.2,0.1c0.3,0,0.5-0.3,0.5-0.7
		c0-0.1-0.1-0.3-0.2-0.3c-0.2,0-0.4,0.2-0.4,0.5L7.5,7.5z"/>
	<polygon class="st0" points="8.7,7.7 9,5.9 9.3,5.9 8.9,7.7 	"/>
	<path class="st0" d="M9.3,7.7l0.2-1.3h0.2L9.5,7.7H9.3z M9.7,6.2c-0.1,0-0.1-0.1-0.1-0.1c0-0.1,0.1-0.2,0.2-0.2S9.9,6,9.9,6.1
		C9.9,6.2,9.8,6.2,9.7,6.2"/>
	<path class="st0" d="M10.7,7.7c0-0.1,0-0.2,0-0.3h0c-0.1,0.3-0.3,0.4-0.5,0.4c-0.2,0-0.4-0.2-0.4-0.4c0-0.4,0.3-0.9,0.9-0.9
		c0.1,0,0.3,0,0.3,0L11,7.1c0,0.2-0.1,0.4,0,0.6H10.7z M10.9,6.6l-0.1,0c-0.3,0-0.6,0.3-0.6,0.7c0,0.1,0.1,0.3,0.2,0.3
		c0.2,0,0.4-0.2,0.5-0.6L10.9,6.6z"/>
	<path class="st0" d="M11.3,7.7l0.2-0.9c0-0.1,0-0.3,0.1-0.4h0.2l0,0.3h0c0.1-0.2,0.3-0.3,0.5-0.3c0.1,0,0.3,0.1,0.3,0.3l0,0.2
		l-0.1,0.7h-0.2L12.2,7l0-0.2c0-0.1-0.1-0.2-0.2-0.2c-0.2,0-0.4,0.2-0.4,0.5l-0.1,0.6H11.3z"/>
	<path class="st0" d="M13.2,6.1l-0.1,0.3h0.3l0,0.2h-0.3L13,7.2l0,0.2c0,0.1,0,0.1,0.1,0.1l0.1,0l0,0.2l-0.2,0
		c-0.2,0-0.3-0.1-0.3-0.2c0-0.1,0-0.1,0-0.2l0.1-0.6h-0.2l0-0.2H13l0-0.2L13.2,6.1z"/>
	<path class="st0" d="M12.3,15.8c-0.2-0.3-0.9-1.1-2.3-1.1c-0.4,0-0.8,0.1-1.2,0.2c0,0-0.5,0.2-1.2,0.2c-1.7,0-4.5-1-5.1-7.2
		c0.3,0.7,0.9,1.9,2.4,2.1C5.2,10,5.6,10,6.1,10c1.6,0.1,3.9,0.2,4.9,1.5c0.5,0.7,0.7,1.6,0.5,2.7c0-0.1-0.1-0.2-0.1-0.2l-0.1-0.1
		c-0.1-0.2-0.2-0.3-0.3-0.5c-0.1-0.2-0.3-0.4-0.4-0.6l-0.3-0.3l-0.3-0.2c-0.1-0.1-0.2-0.1-0.3-0.2c0,0-0.1,0-0.1-0.1
		c-0.1,0-0.1-0.1-0.2-0.1c-0.2-0.1-0.5-0.1-0.7-0.2c-0.4-0.1-0.9-0.1-1.3-0.1l-0.3,0c-0.2,0-0.3,0-0.5,0c-0.2,0-0.4,0-0.6-0.1l0,0
		c-0.1,0-0.1,0-0.2,0c0,0-0.1,0-0.1,0l-0.1,0c0,0-0.1,0-0.1,0l-0.2-0.1c-0.1,0-0.2-0.1-0.3-0.1c0,0-0.1,0-0.1,0
		c-0.1,0-0.1-0.1-0.2-0.1c-0.2-0.1-0.4-0.2-0.6-0.4L4,10.8l-0.1-0.1c-0.1-0.1-0.1-0.1-0.2-0.2l0,0c-0.1-0.2-0.3-0.3-0.4-0.5
		C3.1,9.7,3,9.6,2.9,9.4l0-0.1l-0.1,0l0,0C2.9,9.6,3,9.8,3.1,10c0.1,0.2,0.2,0.4,0.4,0.6l0,0.1c0.1,0.1,0.1,0.2,0.2,0.2L3.8,11
		L4,11.1c0.2,0.2,0.4,0.3,0.6,0.4c0.1,0,0.2,0.1,0.2,0.1c0,0,0.1,0,0.1,0c0.1,0,0.2,0.1,0.3,0.1l0.2,0.1c0,0,0.1,0,0.1,0l0.1,0
		c0,0,0.1,0,0.1,0c0.1,0,0.2,0,0.2,0C6.1,12,6.4,12,6.6,12c0.2,0,0.3,0,0.5,0l0.3,0c0.4,0,0.8,0,1.3,0.1c0.2,0,0.4,0.1,0.6,0.2
		c0.1,0,0.1,0.1,0.2,0.1c0,0,0.1,0,0.1,0l0.3,0.2l0.3,0.2l0.2,0.2c0.2,0.2,0.3,0.3,0.4,0.5c0.1,0.1,0.2,0.3,0.3,0.4l0.1,0.1
		c0.1,0.1,0.1,0.3,0.2,0.4c0,0.1,0.1,0.1,0.1,0.2l0.4,0.7c0,0,0,0.1,0.1,0.1C12.2,15.6,12.2,15.7,12.3,15.8"/>
	<path class="st0" d="M16.3,4.2h0.2c0-0.1,0-0.2-0.1-0.3L15.2,4c0,0.4,0.2,0.7,0.4,0.9c0.2-0.2,0.4-0.4,0.6-0.6L16.3,4.2z"/>
	<path class="st0" d="M19,4c0-0.2-0.1-0.4-0.2-0.6c-0.1-0.2-0.3-0.3-0.5-0.4c-0.2-0.1-0.6-0.2-1.2-0.4c-0.2,0-0.4-0.1-0.4-0.2
		c0,0-0.1,0-0.1-0.2c0-0.2,0.1-0.2,0.1-0.2C16.7,2,16.9,2,17,2c0.2,0,0.3,0,0.4,0.1c0.1,0.1,0.2,0.2,0.2,0.4l1.2-0.1
		c-0.1-0.4-0.2-0.7-0.5-0.9c-0.3-0.2-0.7-0.3-1.2-0.3c-0.4,0-0.8,0.1-1,0.2c-0.3,0.1-0.4,0.3-0.6,0.4c-0.1,0.2-0.2,0.4-0.2,0.6
		c0,0.3,0.1,0.6,0.4,0.8c0.2,0.2,0.6,0.4,1.2,0.5c0.3,0.1,0.6,0.2,0.7,0.2c0,0,0.1,0.1,0.1,0.3h1.2C18.9,4.1,19,4.1,19,4"/>
	<path class="st0" d="M10.2,8.6h2.3c0,0,0.6,1.6,0.6,1.5c0.4-1.2,1.4-3.4,3.5-5.4H19c0,0-5.2,3.5-6.1,8.1
		C12.9,12.8,12.9,9.7,10.2,8.6"/>
</g>
</svg>
