<?xml version="1.0" encoding="utf-8"?>
<!-- Generator: Adobe Illustrator 23.0.0, SVG Export Plug-In . SVG Version: 6.00 Build 0)  -->
<svg version="1.1" id="Layer_1" xmlns="http://www.w3.org/2000/svg" xmlns:xlink="http://www.w3.org/1999/xlink" x="0px" y="0px"
	 viewBox="0 0 51.2 17.01" style="enable-background:new 0 0 51.2 17.01;" xml:space="preserve">
<style type="text/css">
	.st0{fill:#231F20;}
	.st1{fill:#231F20;stroke:#231F20;stroke-width:0.35;stroke-linecap:round;stroke-linejoin:round;stroke-miterlimit:10;}
</style>
<rect x="36.5" y="14.1" class="st0" width="8.63" height="1.7"/>
<path class="st0" d="M43.86,12.27V11.7c0.02,0.09,0.04,0.19,0.04,0.29C43.9,12.09,43.89,12.18,43.86,12.27 M43.86,5.4V5.07h0.28
	V4.51h-0.28V4.19h0.44c0.08,0,0.16,0.08,0.16,0.16v0.88c0,0.08-0.08,0.17-0.16,0.17H43.86z M43.86,3.88V2.74h0.05
	c0.14,0,0.27,0.05,0.37,0.14c0.09,0.09,0.15,0.21,0.15,0.35c0,0.14-0.06,0.26-0.16,0.35l-0.11,0.08v0.07L44,3.88H43.86z M43.86,2.74
	v1.14h-0.04l-0.02,0.3h0.07v0.32h-0.28v0.56h0.28V5.4h-0.19l-0.53,5.5c0.16,0.05,0.29,0.15,0.41,0.26c0.15,0.15,0.25,0.33,0.31,0.54
	v0.57c-0.05,0.21-0.16,0.39-0.31,0.54c-0.22,0.22-0.5,0.35-0.82,0.35V12.5c0.14,0,0.27-0.06,0.36-0.15c0.09-0.1,0.15-0.23,0.15-0.37
	c0-0.14-0.06-0.27-0.15-0.36c-0.1-0.1-0.22-0.16-0.36-0.16v-0.64h0.1l0.53-5.44l-0.1-0.15V4.35l0.17-0.16h0.05l0.03-0.3h-0.76V3.32
	h0.67L43.4,3.23l0.01-0.11C43.29,3,43.08,2.87,42.73,2.76V2.44c0.41,0.13,0.68,0.28,0.85,0.41C43.66,2.79,43.76,2.75,43.86,2.74
	 M42.73,12.38c0.21,0,0.39-0.18,0.39-0.4c0-0.22-0.18-0.4-0.39-0.4V12.38z M41.99,5.64h0.26c0.08,0,0.16,0.08,0.16,0.16v0.44
	L42.24,6.4h-0.26V6.07h0.09V5.96h-0.09V5.64z M42.73,2.44v0.32c-0.2-0.06-0.45-0.12-0.75-0.16V2.28
	C42.27,2.32,42.53,2.37,42.73,2.44 M41.99,3.32h0.75v0.57h-0.75V3.32z M42.73,10.83v0.64c-0.14,0-0.28,0.06-0.36,0.15v0.01
	c-0.1,0.09-0.16,0.22-0.16,0.36c0,0.14,0.06,0.27,0.16,0.37c0.09,0.09,0.22,0.15,0.36,0.15v0.65c-0.29,0-0.55-0.11-0.75-0.28V11.1
	C42.18,10.93,42.45,10.83,42.73,10.83 M42.73,11.59c-0.22,0-0.4,0.18-0.4,0.4c0,0.22,0.18,0.4,0.4,0.4V11.59z M40.54,5.64h1.45v0.32
	h-0.06l-0.04,0.11h0.1V6.4h-1.45V6.07h0.11l-0.04-0.11h-0.07V5.64z M41.99,2.28V2.6l-0.07-0.01v0.1c0,0.08-0.08,0.16-0.16,0.16
	h-1.21V2.53h1.05V2.3h-1.05V1.97h1.21l0.16,0.17v0.13L41.99,2.28z M40.54,3.32h1.45v0.57h-1.45V3.32z M41.99,11.1v1.78l-0.08-0.07
	c-0.1-0.1-0.18-0.22-0.25-0.35h-1.12v-0.33h1.03l-0.01-0.14c0-0.32,0.13-0.61,0.34-0.82L41.99,11.1z M40.26,5.64h0.28v0.32h-0.12
	v0.11h0.12V6.4h-0.28l-0.17-0.16V5.8C40.09,5.72,40.18,5.64,40.26,5.64 M40.54,1.97V2.3h-0.12v0.23h0.12v0.32h-0.28
	c-0.08,0-0.17-0.08-0.17-0.16V2.55c-0.33,0.02-0.61,0.06-0.85,0.11V2.9l-0.03,0.09l0.05,0.11v0.22h1.28v0.57h-1.65V3.32h0.05V3.26
	h-0.05V2.19h0.19l0.16,0.15c0.24-0.05,0.52-0.09,0.85-0.11V2.14l0.17-0.17H40.54z M40.54,12.13v0.33H39.4v0.56
	c0,0.08-0.08,0.16-0.16,0.16h-0.35v-1.05H40.54z M38.89,2.19v1.08h-0.05v0.05h0.05v0.57h-0.61V3.32h0.24V3.1l0.01-0.05l-0.09-0.12
	l-0.16,0.1V2.67l0.16-0.08V2.35c0-0.09,0.08-0.16,0.16-0.16H38.89z M38.89,12.13v1.05h-0.02l-0.17-0.16v-0.57l-0.13-0.14l-0.29-3.02
	V5.92l0.6,6.21H38.89z M38.28,2.67v0.36c-0.16,0.11-0.23,0.2-0.26,0.25l0.01,0.04h0.25v0.57h-0.2l0.2,2.03v3.37l-0.52-5.4h-0.28
	l-0.16-0.16V3.48l0.16-0.16h0.22V3.27l0.01-0.08C37.71,3.19,37.81,2.93,38.28,2.67"/>
<polygon class="st1" points="34.85,1.44 34.87,1.21 35.09,1.22 40.79,7.37 46.49,1.22 46.71,1.21 46.73,1.44 41.01,7.61 
	46.73,13.79 46.71,14.02 46.49,14.02 40.79,7.85 35.09,14.02 34.87,14.02 34.85,13.79 40.57,7.61 "/>
<g>
	<path class="st0" d="M23.63,9.15l0.64,0.39c0.11,0,0.16-0.04,0.16-0.13c0-0.06-0.03-0.14-0.08-0.24l-1.41-2.64L19.83,6.6
		c-0.14,0.01-0.21,0.08-0.21,0.22l0.13,0.13l0.65,0.39L19.71,8.4c-0.19,0.3-0.29,0.56-0.29,0.75c0,0.18,0.06,0.38,0.19,0.6l2.12,3.7
		c-0.05-0.23-0.08-0.46-0.08-0.67c0-0.37,0.12-0.74,0.35-1.1L23.63,9.15"/>
	<path class="st0" d="M24.45,6.99l1.75-2.71c-0.66-1.49-1.35-2.24-2.09-2.24c-0.44,0-0.74,0.13-0.89,0.37l-1.66,2.64L24.45,6.99"/>
	<path class="st0" d="M23.02,14.33h3.38v-3.51h-3.25c-0.4,0.57-0.65,0.96-0.75,1.16c-0.16,0.32-0.25,0.65-0.25,0.99
		C22.15,13.88,22.44,14.33,23.02,14.33"/>
	<path class="st0" d="M29.98,6.34l1.5-2.53c0.05-0.09,0.08-0.18,0.08-0.28c0-0.11-0.04-0.17-0.11-0.17c0.01,0-0.04,0.02-0.15,0.06
		l-0.69,0.31l-0.63-1.25c-0.28-0.56-0.84-0.84-1.68-0.84h-3.91c0.47,0.15,0.8,0.29,0.97,0.43c0.4,0.32,0.81,0.91,1.23,1.79
		l0.78,1.64l-0.58,0.28L26.7,5.93c0,0.09,0.06,0.15,0.18,0.16L29.98,6.34"/>
	<path class="st0" d="M31.48,13.81l2.19-3.98c-0.32,0.37-0.68,0.62-1.06,0.74c-0.3,0.1-0.74,0.15-1.3,0.15h-2.44v-0.5
		c0-0.2-0.05-0.29-0.14-0.29L28.58,10l-1.54,2.67l1.6,2.45c0.12,0.19,0.22,0.26,0.31,0.22l0.13-0.14v-0.84h1.35
		C30.93,14.37,31.28,14.18,31.48,13.81"/>
	<path class="st0" d="M30.53,10.22h1.45c0.35,0,0.71-0.15,1.08-0.46c0.4-0.32,0.6-0.65,0.6-1.01c0-0.16-0.05-0.33-0.16-0.48
		l-1.73-2.64L28.8,7.36L30.53,10.22"/>
</g>
<path class="st0" d="M14.71,1.95H6.49c-1.11,0-2.02,0.91-2.02,2.02v9.08c0,1.11,0.91,2.02,2.02,2.02h8.22
	c1.11,0,2.02-0.91,2.02-2.02V3.97C16.73,2.85,15.82,1.95,14.71,1.95z M16.23,13.04c0,0.84-0.68,1.52-1.52,1.52H6.49
	c-0.84,0-1.52-0.68-1.52-1.52V3.97c0-0.84,0.68-1.52,1.52-1.52h7.26c-0.47,0.29-1.24,0.87-2,1.86c-1.21,1.6-1.67,3.07-1.67,3.07
	L9.05,5.41L6.93,6.69c0,0,0.76,0.39,1.58,1.04c0.82,0.65,1.62,1.73,1.62,1.73s0.41-0.8,1.71-2.38c1.07-1.3,3.53-2.9,4.35-3.41
	c0.02,0.1,0.03,0.2,0.03,0.3V13.04z M11.49,12.36h0.81v0.94h0.86v-2.6H12.3v1.01h-0.81V10.7h-0.86v2.6h0.86V12.36z M7.79,12.12
	c0.07-0.14,0.11-0.3,0.11-0.49c0-0.3-0.1-0.53-0.29-0.69c-0.19-0.16-0.47-0.24-0.82-0.24H5.53v2.6h0.86v-0.68h0.32l0.31,0.68H8
	l-0.51-0.85C7.62,12.37,7.72,12.26,7.79,12.12z M7.01,11.89c-0.05,0.06-0.12,0.08-0.22,0.08h-0.4v-0.62h0.4
	c0.09,0,0.17,0.03,0.22,0.08c0.05,0.05,0.08,0.13,0.08,0.22C7.08,11.76,7.06,11.83,7.01,11.89z M14.68,12.69
	c-0.13,0-0.3-0.04-0.5-0.12c-0.2-0.08-0.36-0.18-0.49-0.29l-0.32,0.65c0.17,0.13,0.37,0.23,0.61,0.31c0.23,0.08,0.47,0.11,0.7,0.11
	c0.2,0,0.39-0.03,0.55-0.09c0.17-0.06,0.3-0.16,0.4-0.28c0.1-0.13,0.15-0.29,0.15-0.47c0-0.18-0.05-0.33-0.14-0.44
	s-0.2-0.2-0.32-0.25c-0.12-0.05-0.28-0.1-0.46-0.16c-0.15-0.04-0.26-0.08-0.33-0.11c-0.07-0.03-0.1-0.08-0.1-0.14
	c0-0.08,0.05-0.12,0.16-0.12c0.11,0,0.25,0.03,0.42,0.09c0.17,0.06,0.33,0.13,0.47,0.22l0.31-0.66c-0.15-0.09-0.32-0.17-0.53-0.23
	c-0.2-0.06-0.4-0.09-0.61-0.09c-0.22,0-0.42,0.03-0.59,0.1c-0.17,0.07-0.3,0.17-0.39,0.3s-0.14,0.28-0.14,0.45
	c0,0.18,0.04,0.32,0.13,0.43c0.09,0.11,0.2,0.19,0.32,0.24c0.12,0.05,0.28,0.1,0.46,0.15c0.15,0.04,0.26,0.07,0.33,0.11
	c0.07,0.03,0.11,0.08,0.11,0.14c0,0.05-0.02,0.09-0.06,0.11S14.75,12.69,14.68,12.69z M10.39,12.29c0-0.21-0.05-0.39-0.14-0.55
	c-0.09-0.16-0.23-0.28-0.4-0.36c-0.17-0.09-0.38-0.13-0.61-0.13c-0.23,0-0.43,0.04-0.61,0.13c-0.17,0.09-0.31,0.21-0.4,0.36
	c-0.09,0.16-0.14,0.34-0.14,0.55c0,0.21,0.05,0.39,0.14,0.55c0.09,0.16,0.23,0.28,0.4,0.37s0.38,0.13,0.61,0.13
	c0.23,0,0.43-0.04,0.61-0.13c0.17-0.09,0.31-0.21,0.4-0.37C10.34,12.68,10.39,12.5,10.39,12.29z M9.46,12.58
	c-0.06,0.07-0.13,0.11-0.22,0.11c-0.09,0-0.17-0.04-0.22-0.11c-0.06-0.07-0.08-0.17-0.08-0.29c0-0.12,0.03-0.21,0.08-0.29
	c0.06-0.07,0.13-0.11,0.22-0.11c0.09,0,0.17,0.04,0.22,0.11c0.06,0.07,0.08,0.17,0.08,0.29C9.54,12.42,9.52,12.51,9.46,12.58z"/>
</svg>
